HIERARCHY
ROOT Hips
{
	OFFSET 55.310501 45.591206 43.872097
	CHANNELS 6 Xposition Yposition Zposition Zrotation Xrotation Yrotation
	JOINT Chest
	{
		OFFSET -0.153500 1.163101 7.852402
		CHANNELS 6 Xposition Yposition Zposition Zrotation Xrotation Yrotation
		JOINT Chest2
		{
			OFFSET 0.000000 0.000000 3.343300
			CHANNELS 6 Xposition Yposition Zposition Zrotation Xrotation Yrotation
			JOINT Neck
			{
				OFFSET 0.000000 0.000000 7.785500
				CHANNELS 6 Xposition Yposition Zposition Zrotation Xrotation Yrotation
				JOINT Head
				{
					OFFSET 0.000000 0.000000 2.173901
					CHANNELS 6 Xposition Yposition Zposition Zrotation Xrotation Yrotation
					End Site
					{
						OFFSET 0.000000 0.000000 10.528198
					}
				}
			}
			JOINT LeftCollar
			{
				OFFSET 2.676300 -1.652401 4.938301
				CHANNELS 6 Xposition Yposition Zposition Zrotation Xrotation Yrotation
				JOINT LeftShoulder
				{
					OFFSET 4.299000 0.000000 0.000000
					CHANNELS 6 Xposition Yposition Zposition Zrotation Xrotation Yrotation
					JOINT LeftElbow
					{
						OFFSET 0.000000 0.000000 -10.245102
						CHANNELS 6 Xposition Yposition Zposition Zrotation Xrotation Yrotation
						JOINT LeftWrist
						{
							OFFSET 0.000000 0.000000 -12.703300
							CHANNELS 6 Xposition Yposition Zposition Zrotation Xrotation Yrotation
							End Site
							{
								OFFSET 0.000000 0.000000 -2.173901
							}
						}
					}
				}
			}
			JOINT RightCollar
			{
				OFFSET -2.534599 -1.686401 5.195000
				CHANNELS 6 Xposition Yposition Zposition Zrotation Xrotation Yrotation
				JOINT RightShoulder
				{
					OFFSET -4.144100 0.000000 0.000000
					CHANNELS 6 Xposition Yposition Zposition Zrotation Xrotation Yrotation
					JOINT RightElbow
					{
						OFFSET 0.000000 0.000000 -10.116501
						CHANNELS 6 Xposition Yposition Zposition Zrotation Xrotation Yrotation
						JOINT RightWrist
						{
							OFFSET 0.000000 0.000000 -12.937801
							CHANNELS 6 Xposition Yposition Zposition Zrotation Xrotation Yrotation
							End Site
							{
								OFFSET 0.000000 0.000000 -2.173901
							}
						}
					}
				}
			}
		}
	}
	JOINT LeftHip
	{
		OFFSET 2.175598 0.064499 -2.662899
		CHANNELS 6 Xposition Yposition Zposition Zrotation Xrotation Yrotation
		JOINT LeftKnee
		{
			OFFSET 0.000000 -0.000004 -18.585800
			CHANNELS 6 Xposition Yposition Zposition Zrotation Xrotation Yrotation
			JOINT LeftAnkle
			{
				OFFSET 0.000000 0.000000 -18.979500
				CHANNELS 6 Xposition Yposition Zposition Zrotation Xrotation Yrotation
				End Site
				{
					OFFSET 0.000000 -9.264000 0.000000
				}
			}
		}
	}
	JOINT RightHip
	{
		OFFSET -2.092400 -0.058102 -2.581200
		CHANNELS 6 Xposition Yposition Zposition Zrotation Xrotation Yrotation
		JOINT RightKnee
		{
			OFFSET 0.000000 -0.000004 -18.665001
			CHANNELS 6 Xposition Yposition Zposition Zrotation Xrotation Yrotation
			JOINT RightAnkle
			{
				OFFSET 0.000000 0.000000 -18.566601
				CHANNELS 6 Xposition Yposition Zposition Zrotation Xrotation Yrotation
				End Site
				{
					OFFSET 0.000000 -8.497601 0.000000
				}
			}
		}
	}
}
MOTION
Frames: 6
Frame Time: 0.041667
78.700806 -2.451694 27.171293 2566.137916 27.408002 -28.401173 -0.153499 1.163093 7.852410 6.511459 0.277027 0.792893 -0.000001 -0.000004 3.343311 -3.581843 -6.280459 0.127651 0.000010 -0.000004 7.785503 4.458444 -0.522903 29.907459 0.000000 -0.000006 2.173910 4.417212 -14.430950 5.238480 2.676299 -1.652407 4.938300 24.538824 -6.995603 -10.455528 4.299004 -0.000006 -0.000010 -28.710212 -19.790289 -100.783642 -0.000005 -0.000004 -10.245104 11.215066 703.480033 0.430558 -0.000006 0.000008 -12.703285 1189.672514 -184.835492 552.030860 -2.534602 -1.686399 5.195004 -9.745983 -3.294298 22.252799 -4.144098 0.000000 0.000002 26.334744 -18.467950 134.171225 0.000009 0.000001 -10.116506 -229.530966 -168.981790 -186.520609 -0.000002 0.000011 -12.937807 -307.091725 -18.861779 -12.875757 2.175591 0.064494 -2.662885 -607.636742 -18.375415 99.481364 -0.000003 -0.000013 -18.585800 30.872233 -191.628265 -96.083181 0.000003 -0.000015 -18.979500 743.553791 4.404701 -353.459858 -2.092395 -0.058104 -2.581193 1210.778127 42.971623 -59.688866 -0.000013 -0.000006 -18.664991 -1194.604457 2.066065 -738.267771 -0.000005 -0.000003 -18.566599 680.065379 -15.293451 -58.128851
78.687111 -2.507996 27.205395 2566.187312 27.292384 -28.215984 -0.153501 1.163097 7.852408 6.430065 0.359961 0.793474 0.000006 0.000005 3.343309 -3.518051 -6.291347 0.128365 -0.000004 -0.000007 7.785507 4.479970 -0.472098 29.576013 -0.000003 0.000005 2.173910 4.308627 -14.374476 5.392491 2.676291 -1.652405 4.938302 24.552052 -7.064991 -10.654228 4.299009 -0.000002 -0.000011 -28.993675 -19.646629 -100.818947 -0.000004 0.000001 -10.245108 11.310163 703.544674 0.441857 -0.000007 0.000004 -12.703266 1189.711856 -184.834727 552.043373 -2.534603 -1.686402 5.195003 -9.592784 -3.091094 22.192014 -4.144100 0.000007 -0.000005 26.193958 -18.548634 134.048446 0.000007 -0.000008 -10.116493 -229.248743 -168.819942 -186.643552 0.000002 0.000015 -12.937800 -307.060061 -18.702446 -12.495683 2.175594 0.064499 -2.662888 -607.666849 -18.420252 99.319229 -0.000005 -0.000004 -18.585798 30.715146 -191.622774 -96.056147 0.000008 -0.000000 -18.979498 743.503739 4.388803 -353.557776 -2.092392 -0.058100 -2.581196 1209.751740 43.401184 -58.817566 -0.000000 0.000005 -18.665003 -1193.408027 2.138958 -737.972597 -0.000007 0.000003 -18.566607 679.683490 -15.349324 -58.490195
78.665100 -2.567783 27.257298 2566.301841 27.174203 -27.953055 -0.153505 1.163106 7.852402 6.274161 0.390661 0.726448 -0.000004 0.000005 3.343305 -3.440769 -6.290152 0.131619 -0.000001 0.000006 7.785501 4.466867 -0.445230 29.226130 0.000004 -0.000003 2.173902 4.221892 -14.304041 5.493062 2.676291 -1.652398 4.938299 24.580693 -7.144990 -10.839174 4.298988 0.000000 -0.000004 -29.310278 -19.378671 -100.890370 0.000002 -0.000003 -10.245113 11.410240 703.643138 0.422900 -0.000004 0.000003 -12.703300 1189.831412 -184.823198 552.092059 -2.534598 -1.686393 5.195001 -9.504388 -2.931841 21.985095 -4.144104 -0.000001 -0.000006 26.188012 -18.555776 134.028461 0.000009 -0.000003 -10.116502 -229.067333 -168.737733 -186.738997 -0.000004 0.000019 -12.937802 -306.701940 -18.312712 -11.441176 2.175593 0.064498 -2.662893 -607.766352 -18.534483 99.192590 -0.000011 -0.000004 -18.585794 30.538046 -191.638757 -96.068202 0.000003 0.000001 -18.979500 743.421394 4.351390 -353.657688 -2.092402 -0.058096 -2.581199 1208.599679 43.734651 -57.783114 -0.000011 -0.000005 -18.665001 -1192.081549 2.244662 -737.678735 -0.000006 0.000001 -18.566605 679.133741 -15.438324 -58.969265
78.636307 -2.630997 27.330093 2566.470574 27.037977 -27.906560 -0.153507 1.163102 7.852406 6.063319 0.424549 0.875940 0.000006 -0.000000 3.343302 -3.370816 -6.299501 0.134237 -0.000001 0.000003 7.785501 4.479777 -0.384902 28.818446 -0.000003 0.000005 2.173908 4.098700 -14.227840 5.569273 2.676292 -1.652394 4.938304 24.637609 -7.231643 -10.976834 4.298992 -0.000013 -0.000003 -29.686748 -18.914283 -101.004325 -0.000004 -0.000002 -10.245102 11.519365 703.799467 0.357291 0.000015 0.000005 -12.703275 1190.062436 -184.799401 552.167027 -2.534605 -1.686394 5.195001 -9.561930 -2.917722 21.646203 -4.144100 -0.000003 -0.000003 26.402171 -18.423443 134.046479 0.000005 -0.000004 -10.116503 -229.150661 -168.722584 -186.849059 -0.000001 0.000015 -12.937803 -306.115746 -18.257239 -10.867777 2.175586 0.064497 -2.662896 -608.006119 -18.443039 98.965562 -0.000004 -0.000011 -18.585800 30.285441 -191.675599 -96.112947 0.000007 -0.000005 -18.979500 743.315171 4.250288 -353.742710 -2.092391 -0.058109 -2.581202 1207.417127 44.272419 -56.802189 -0.000012 -0.000001 -18.664995 -1190.458915 2.345995 -737.368481 -0.000002 -0.000002 -18.566601 678.348051 -15.560021 -59.632421
78.604202 -2.697094 27.425995 2566.577234 26.895256 -27.785875 -0.153491 1.163099 7.852400 5.879227 0.473222 0.967196 -0.000009 0.000001 3.343298 -3.313991 -6.298055 0.136766 0.000003 0.000005 7.785500 4.492075 -0.327353 28.429605 -0.000001 0.000008 2.173911 3.992322 -14.159548 5.587036 2.676298 -1.652393 4.938300 24.738851 -7.364642 -11.056999 4.299002 -0.000010 -0.000007 -30.104062 -18.226717 -101.120869 -0.000016 -0.000010 -10.245109 11.786613 704.021967 0.313864 -0.000008 0.000005 -12.703289 1190.270074 -184.788336 552.264726 -2.534603 -1.686395 5.195001 -9.698939 -3.022099 21.402119 -4.144098 0.000004 0.000000 26.703634 -18.279468 133.924218 0.000007 0.000009 -10.116499 -229.122493 -168.708855 -186.921732 -0.000001 0.000014 -12.937807 -305.616077 -18.225742 -10.257211 2.175611 0.064487 -2.662891 -608.319214 -18.492669 98.667485 -0.000005 -0.000003 -18.585800 30.076895 -191.823131 -96.263382 0.000002 0.000002 -18.979500 743.145127 4.116426 -353.781123 -2.092374 -0.058115 -2.581198 1206.466146 44.624126 -55.903763 -0.000012 -0.000001 -18.664999 -1188.859230 2.497667 -737.153630 -0.000009 -0.000002 -18.566599 677.401332 -15.708339 -60.385218
78.570518 -2.763897 27.546595 2566.641274 26.705630 -27.597164 -0.153496 1.163097 7.852403 5.636016 0.572167 1.032567 0.000003 0.000005 3.343301 -3.246950 -6.320381 0.139843 -0.000005 -0.000005 7.785498 4.532086 -0.235109 27.953656 0.000003 -0.000005 2.173912 3.927386 -14.057200 5.548814 2.676297 -1.652411 4.938300 24.927969 -7.538523 -11.044193 4.299003 -0.000013 -0.000011 -30.610722 -17.329172 -101.322277 -0.000010 -0.000008 -10.245109 12.143248 704.279547 0.287744 0.000001 0.000010 -12.703297 1190.474652 -184.773406 552.366960 -2.534603 -1.686401 5.194997 -9.802324 -3.071629 21.118930 -4.144102 -0.000001 -0.000003 26.953670 -18.169497 133.750936 0.000000 -0.000006 -10.116512 -229.110486 -168.656727 -186.983095 -0.000004 0.000007 -12.937799 -305.094442 -18.196397 -9.607072 2.175602 0.064498 -2.662902 -608.744380 -18.611977 98.282495 -0.000010 0.000001 -18.585804 29.802093 -191.926868 -96.506652 -0.000003 -0.000002 -18.979502 743.064913 3.980721 -353.745551 -2.092394 -0.058102 -2.581203 1205.522815 44.935808 -54.974099 -0.000009 -0.000000 -18.664991 -1187.100429 2.677329 -736.983149 -0.000006 0.000000 -18.566603 676.322654 -15.856703 -61.237844
